<?xml version="1.0" standalone="no"?>
<!DOCTYPE svg PUBLIC "-//W3C//DTD SVG 20010904//EN"
 "http://www.w3.org/TR/2001/REC-SVG-20010904/DTD/svg10.dtd">
<svg version="1.0" xmlns="http://www.w3.org/2000/svg"
 width="4000.000000pt" height="4000.000000pt" viewBox="0 0 4000.000000 4000.000000"
 preserveAspectRatio="xMidYMid meet">
<metadata>
Created by potrace 1.11, written by Peter Selinger 2001-2013
</metadata>
<g transform="translate(0.000000,4000.000000) scale(0.100000,-0.100000)"
fill="#000000" stroke="none">
<path d="M32700 39409 c-395 -19 -843 -124 -1253 -293 -700 -289 -1352 -639
-1917 -1029 -739 -511 -1361 -1103 -1704 -1622 -541 -818 -1221 -2098 -1771
-3335 -1111 -2499 -1901 -5179 -2314 -7855 -75 -480 -124 -860 -196 -1517
-427 -3873 -714 -6331 -1195 -10244 -164 -1327 -562 -4495 -657 -5223 l-18
-135 -209 -133 c-2239 -1434 -4281 -2364 -5716 -2602 -656 -109 -1392 -87
-1946 59 -696 184 -1156 562 -1334 1097 -57 173 -73 270 -74 461 l-1 173 180
68 c1122 421 2456 1086 3489 1739 162 102 527 343 635 419 709 499 1226 924
1735 1423 1344 1320 2105 2727 2280 4215 41 349 46 899 11 1230 -65 614 -217
1232 -448 1817 -38 94 -110 200 -314 455 -403 507 -811 890 -1273 1198 -737
489 -1500 737 -2565 832 -286 25 -1108 25 -1340 0 -468 -51 -850 -133 -1271
-272 -1290 -426 -2446 -1284 -3421 -2536 -309 -398 -639 -902 -923 -1409 -123
-220 -414 -807 -524 -1055 -600 -1357 -945 -2691 -1201 -4644 -24 -189 -46
-345 -48 -347 -6 -6 -286 -44 -437 -59 -211 -22 -724 -31 -920 -16 -601 45
-1060 176 -1424 405 -49 31 -139 96 -200 145 -258 204 -452 306 -673 350 -288
59 -560 -19 -780 -222 -155 -145 -442 -575 -618 -930 -147 -294 -233 -543
-275 -792 -29 -172 -25 -423 9 -555 28 -107 104 -266 169 -350 150 -198 344
-321 732 -463 756 -277 1754 -520 2965 -721 411 -69 1029 -157 1265 -181 l66
-7 43 -181 c85 -355 171 -641 288 -957 540 -1457 1457 -2703 2708 -3680 876
-684 1977 -1033 3402 -1079 921 -30 1979 81 3084 324 914 201 1901 499 2715
820 205 81 236 97 1152 609 l941 525 122 -127 c1464 -1522 2936 -2404 4479
-2686 369 -67 677 -90 1103 -83 404 7 643 32 1022 108 1784 356 3550 1602
5047 3560 1727 2259 2960 5298 3317 8179 83 667 115 1298 100 1954 -29 1211
-263 2318 -678 3214 -311 669 -743 1251 -1246 1677 -224 189 -290 233 -535
355 -372 186 -717 291 -1102 336 -196 22 -576 15 -763 -15 -558 -90 -1115
-332 -1632 -708 -174 -126 -385 -299 -520 -427 -62 -58 -115 -106 -118 -106
-2 0 71 96 163 213 1282 1623 2458 3392 3395 5108 1415 2593 2292 5040 2611
7289 56 389 86 689 118 1145 17 244 17 1183 0 1420 -63 872 -181 1554 -407
2340 -274 952 -632 1706 -1071 2255 -131 164 -362 397 -504 510 -424 337 -937
540 -1425 565 -208 11 -244 11 -385 4z m-592 -4169 c192 -89 345 -365 452
-815 68 -284 90 -487 90 -824 0 -639 -125 -1367 -396 -2316 -697 -2437 -2326
-5944 -4682 -10080 -421 -740 -1308 -2244 -1317 -2233 -4 5 14 260 30 423 163
1637 1026 5310 2356 10030 204 722 218 766 364 1123 427 1050 895 2061 1295
2802 704 1301 1280 1960 1685 1924 36 -3 86 -17 123 -34z m-16193 -18280 c158
-23 311 -78 429 -155 72 -46 217 -183 296 -280 336 -410 504 -997 460 -1600
-82 -1129 -758 -2243 -1865 -3075 -157 -118 -492 -342 -710 -475 -653 -399
-1255 -669 -1794 -805 -254 -64 -607 -97 -771 -71 -41 7 -75 13 -75 14 -3 7
15 397 25 522 96 1297 390 2424 891 3425 539 1075 1290 1897 2094 2290 215
105 491 191 685 213 73 8 268 6 335 -3z m14535 -1160 c486 -29 968 -149 1380
-342 328 -154 665 -624 863 -1203 430 -1256 241 -3047 -548 -5190 -160 -436
-282 -720 -456 -1065 -660 -1313 -1547 -2191 -2649 -2623 -852 -333 -1845
-383 -2815 -141 -110 28 -301 85 -382 116 l-53 19 -25 82 c-158 523 -183 1426
-69 2462 48 441 142 1043 240 1533 221 1115 631 2643 906 3377 710 1895 1837
2913 3298 2978 36 2 83 4 105 5 22 1 114 -3 205 -8z"/>
</g>
</svg>
